<svg xmlns="http://www.w3.org/2000/svg" xmlns:xlink="http://www.w3.org/1999/xlink" version="1.1" x="0px" y="0px" style="enable-background:new 0 0 1920 1080;" xml:space="preserve" viewBox="673.2 423.9 509.7 199">
<style type="text/css">
	.st0{fill:url(#SVGID_1_);}
	.st1{fill:url(#SVGID_00000054241885070226057150000016178153619769497019_);}
	.st2{fill:url(#SVGID_00000178163124068154280380000000421021540379788461_);}
	.st3{fill:#19173A;}
</style>
<g id="Layer_1">
</g>
<g id="Layer_2">
	<linearGradient id="SVGID_1_" gradientUnits="userSpaceOnUse" x1="730.4236" y1="413.8447" x2="756.2106" y2="560.0897">
		<stop offset="0" style="stop-color:#FDBC1D"/>
		<stop offset="0.9041" style="stop-color:#FF5F1F"/>
	</linearGradient>
	<path class="st0" d="M758.5,423.9h-85.3v134.4h85.3c37.1,0,67.2-30.1,67.2-67.2S795.6,423.9,758.5,423.9z"/>
	
		<linearGradient id="SVGID_00000109717464629675451040000014193904937893309828_" gradientUnits="userSpaceOnUse" x1="753.4254" y1="478.3708" x2="779.2123" y2="624.6157">
		<stop offset="0" style="stop-color:#FF5F1F"/>
		<stop offset="0.2462" style="stop-color:#FF5A25"/>
		<stop offset="0.5881" style="stop-color:#FF4C37"/>
		<stop offset="0.9843" style="stop-color:#FF3555"/>
		<stop offset="1" style="stop-color:#FF3456"/>
	</linearGradient>
	<path style="fill:url(#SVGID_00000109717464629675451040000014193904937893309828_);" d="M781.5,488.5h-85.3v134.4h85.3   c37.1,0,67.2-30.1,67.2-67.2C848.7,518.6,818.6,488.5,781.5,488.5z"/>
	
		<linearGradient id="SVGID_00000024717930269598474570000006001218041333753485_" gradientUnits="userSpaceOnUse" x1="751.1017" y1="478.7805" x2="765.1408" y2="558.4003">
		<stop offset="0" style="stop-color:#FFCA49"/>
		<stop offset="1" style="stop-color:#FF9852"/>
	</linearGradient>
	<path style="fill:url(#SVGID_00000024717930269598474570000006001218041333753485_);" d="M696.2,488.5v69.9h62.3   c32.7,0,60-23.4,66-54.4c-11.7-9.7-26.6-15.5-43-15.5H696.2z"/>
	<path class="st3" d="M1105.5,556.7c0.7-1.7,2.4-2.8,4.1-3.6c12.7-6.7,27-9.4,40.4-14.5c13-4.9,28.6-14.5,30.3-29.8   c1.8-16.4-8.7-30.5-22.7-37.3c-20.7-10-50.1-8.4-70.3,1.6c-6.2,3-12.9,7.8-18.3,12.8c-1.6,1.5-3.2,3.1-4.5,4.7   c-0.1,0.1-0.2,0.3-0.3,0.4l20.9,18.8c11.5-15.1,31.2-21.5,50-18c9.8,1.8,16.1,12.1,6.5,19.1c-4.2,3.1-9.4,4.9-14.3,6.5   c0,0-27.6,9.3-27.6,9.3c-9.3,3.2-17.7,7.6-25.2,13.3c-7.5,5.7-11.1,12.3-11,19.7l0.2,21.7h119.2c0,0,0-24.8,0-24.8   C1156.4,556.7,1131.9,556.7,1105.5,556.7C1105.5,556.8,1105.5,556.7,1105.5,556.7z"/>
	<path class="st3" d="M1042.8,492.4c-6.4-8.6-14.9-14.9-25.5-19c-10.6-4.1-22.2-6.1-34.9-6.1h-3.4v0h-32.8H926h-20.1v114.3H926h20.1   h30v0h6.3c12.7,0,24.4-2,34.9-6.1c10.6-4.1,19.1-10.4,25.5-19c6.4-8.6,9.6-19.3,9.6-32C1052.4,511.7,1049.2,501,1042.8,492.4z    M979.5,553.4h-0.1c-0.6,0-1.1,0-1.7,0h-31.6v0v-58v0h31.6c0.6,0,1.2,0,1.8,0h0.1c21.4,0,33.3,10.4,33.3,29.1   C1012.8,543,1000.9,553.4,979.5,553.4z"/>
</g>
</svg>